<svg id="Layer_1" data-name="Layer 1" xmlns="http://www.w3.org/2000/svg" viewBox="0 0 1729 1729"><defs><style>.cls-1{fill:#fff;}.cls-2{fill:#edc08b;}.cls-3{fill:#164e13;}</style></defs><title>Love Poem</title><path class="cls-1" d="M1079.93,901a73,73,0,0,1,8.91,62c-1.46,4.58-3.45,9.12-6.83,12.52-9,9.07-23.88,7.1-36.38,4.48-2.32-.49-4.77-1-6.47-2.7-2.08-2-2.5-5.19-2.64-8.09-1.37-28.32,13.72-56.84,37.89-71.65"/><path class="cls-2" d="M1068.46,733.8c-16,33.15-5.27,76.87,24.16,98.93,8.77,6.57,20.27,14.14,18.54,24.95-2.08,13-20,14.53-33.08,12.7-2.92,13.37,17.8,22.93,15.6,36.43-2.27,13.88-24.36,13.58-31.76,25.54-5.25,8.5-.55,20.3,7.51,26.18s18.43,7.39,28.33,8.71l-8.15,47.6c-1,5.67-2.07,11.62-5.74,16.05s-9.51,6.66-15.16,8.09c-18,4.54-37,3.36-54.89,8.06-46,12.09-72.93,58.34-94.93,100.46-10.73,20.53-21.54,45.3-10.73,65.79a379.2,379.2,0,0,1-74.83-115.1c-7.43-17.89-13.63-36.62-25.09-52.24-16.84-23-43.87-37.57-58.11-62.23C736.9,960.8,736.87,931.82,746,907s26.43-46,46.17-63.57c32-28.58,70.37-48.88,108.32-68.89l114.38-60.31c12-6.33,25.33-12.87,38.59-10s23.25,20.57,14,30.53"/><path class="cls-2" d="M1066.3,732.54c-10.47,22.05-9.91,48-.2,70.17a80.53,80.53,0,0,0,21.18,28.92c4.68,4,10,7.28,14.49,11.47,4.17,3.86,8.24,9,6.75,15.07-2.87,11.63-20.7,11-29.77,9.8-1.26-.17-2.79.28-3.08,1.74-1.82,9.33,5,16.33,10.18,23.17,2.46,3.25,5.2,7,5.47,11.21.26,4-1.82,7.27-4.9,9.6-7,5.29-16,7-22.72,12.8-8.15,7.08-8,18.61-2.25,27.2,8,12,23.1,14.28,36.31,16l-2.41-3.16-7.13,41.65c-1,5.81-1.5,12.26-4.11,17.63s-7.52,8.13-13,9.85c-12.7,4-26.29,4.2-39.42,5.7-11.36,1.29-22.35,3.63-32.83,8.29-37.79,16.8-60.48,55.65-79,90.62-11.62,21.91-26.47,49.61-13.84,74.23l3.92-3a377.05,377.05,0,0,1-46.28-59.94c-13.49-21.67-24.11-44.54-33.59-68.2-4.72-11.78-9.64-23.62-16.61-34.29-6.31-9.68-14.35-18-22.82-25.77C774,1008,755.31,993.53,747.2,971.66c-8.54-23-5.83-49.09,4.08-71.23,10-22.33,26.39-41.1,44.66-57.08,19.76-17.28,42-31.51,64.74-44.47,23.46-13.35,47.53-25.64,71.4-38.23l76.85-40.52c11.73-6.19,24.42-14.26,38.15-14.1,9.74.11,18.67,6.24,21,16a12,12,0,0,1-2.44,11c-2.13,2.4,1.4,6,3.54,3.54,6.37-7.19,4.93-17.3-.46-24.63-6.85-9.3-17.53-12.11-28.64-10.3-13.67,2.23-26.11,10.2-38.17,16.56l-40.21,21.2c-26,13.7-52,27.29-77.9,41.11-24,12.81-47.87,26.17-69.91,42.22C774,851.77,734.63,894,737.21,946.91a85.12,85.12,0,0,0,9.54,35.86c5.43,10.21,13.23,18.94,21.53,26.91,8.61,8.27,17.85,15.86,26.27,24.32a115.56,115.56,0,0,1,21.81,30.39c5.91,11.9,10.33,24.45,15.49,36.68a380.72,380.72,0,0,0,61.59,99.61q6.28,7.35,12.95,14.38c2,2.13,5.18-.58,3.92-3-11.29-22,2.48-47.64,12.8-67.21,9.62-18.24,19.8-36.41,32.53-52.7,12-15.39,26.56-29.22,44.45-37.51,10.6-4.91,22-7.18,33.52-8.41,12.7-1.36,25.75-1.8,38.08-5.44,5.68-1.68,11.26-4.37,14.84-9.25,3.83-5.21,4.77-11.79,5.83-18l7.81-45.61a2.56,2.56,0,0,0-2.41-3.17c-11.12-1.48-24.86-3.28-31.79-13.28-2.78-4-4.58-9.18-3.44-14.07,1-4.3,4.18-7.34,7.81-9.59,6.8-4.23,15.19-6.17,21.08-11.82,6.15-5.9,5.91-14.33,1.74-21.29-2.45-4.08-5.7-7.59-8.47-11.43-2.55-3.54-5.08-7.67-4.19-12.22l-3.08,1.75c10.14,1.38,23.14,1.67,31.29-5.62a15.75,15.75,0,0,0,4.91-14.14c-1-6.13-5.41-11-10-14.92-4.84-4.15-10.26-7.55-15-11.88a74.47,74.47,0,0,1-12.17-14.57,82.51,82.51,0,0,1-12.43-35,77,77,0,0,1,6.51-41.6c1.37-2.89-2.94-5.43-4.32-2.52Z"/><path class="cls-3" d="M1104.94,695.9a30.34,30.34,0,0,0,6.36-28.25c-39.37,7.13-77.46-15.78-109.84-39.29s-66.62-49.77-106.63-50.65c-19.66-.43-38.91,5.47-57.29,12.47-32.17,12.24-62.92,28-92.44,45.69-30.73,18.4-60.77,39.47-81.93,68.36S630.78,771.18,641,805.49c4.85,16.21,14.09,30.7,20.78,46.23,17.09,39.64,17,84.3,15.87,127.45,24.6,9.36,52.61-3.59,71.37-22S780.66,915,798.4,895.56C839.76,850.22,903.07,832,950.65,793.25c25-20.35,45.19-46,70-66.67s56.51-36.43,88.33-31.3"/><path class="cls-3" d="M1106.71,697.67a33.22,33.22,0,0,0,7-30.69,2.56,2.56,0,0,0-3.08-1.74c-26.14,4.6-52-4.58-74.52-17.22s-42.42-29.18-63.87-43.44C951.84,591,929.54,579.1,904.91,576c-27.8-3.54-54.93,6.21-80.23,16.63a599,599,0,0,0-74.07,37.1c-21.92,12.82-43.48,26.64-62.46,43.62-18.71,16.74-34.55,36.68-44.13,60-9.2,22.39-12.42,47.77-5.83,71.32,3.63,13,10.13,24.83,16.07,36.82a184.11,184.11,0,0,1,14,37.18c6.64,26.41,7.62,53.85,7.34,81-.07,6.52-.21,13-.38,19.54a2.56,2.56,0,0,0,1.83,2.41c15.63,5.8,32.61,3,47.36-4,15.75-7.46,28.34-19.51,39.19-32.93,11.54-14.25,21.39-29.8,33.37-43.7a197,197,0,0,1,37.13-32.82c27.34-19,57.66-33.15,86-50.53a282,282,0,0,0,41.28-30.27c14-12.54,26.69-26.43,40-39.65,25.24-25.06,56.42-50.2,93.79-50.89a76.63,76.63,0,0,1,13.11.87c3.15.49,4.51-4.32,1.33-4.82-36.39-5.67-70.52,13.79-96.81,37.15-14.15,12.59-26.95,26.57-40.36,39.91a284.73,284.73,0,0,1-40.85,34.36c-27.59,18.73-58,32.81-86.22,50.46-14,8.71-27.42,18.33-39.42,29.61-12.94,12.16-23.32,26.46-33.74,40.75s-21.33,29-35.81,39.51c-13.31,9.66-29.69,16.58-46.41,14.93a47.1,47.1,0,0,1-11.63-2.79l1.84,2.41c.69-26.82,1-53.78-2.93-80.39a199.39,199.39,0,0,0-9.31-38.31c-4.48-12.46-10.8-24-16.54-35.92-5.57-11.54-10-23.51-11.24-36.34A105.52,105.52,0,0,1,643,752.37c6.07-24.33,19.51-45.93,36.71-64s37.9-32.71,59.15-45.83A632.25,632.25,0,0,1,811,603.94c12.71-5.74,25.66-11.09,38.89-15.54s26.71-7.84,40.6-8.18c25-.62,48.29,9.44,69.22,22.24,21.71,13.28,41.27,29.71,62.81,43.25s45.53,24.93,71.25,25.72a89.17,89.17,0,0,0,18.24-1.37l-3.07-1.75a28,28,0,0,1-5.72,25.82c-2.11,2.42,1.42,6,3.54,3.54Z"/></svg>