<svg id="Layer_1" data-name="Layer 1" xmlns="http://www.w3.org/2000/svg" viewBox="0 0 1729 1729"><defs><style>.cls-1{fill:#e19d57;}.cls-2{fill:#473c1e;}.cls-3{fill:#3b382e;}.cls-4{fill:#874740;}</style></defs><title>Love Poem</title><path class="cls-1" d="M936.5,685.16a522.13,522.13,0,0,1,73.78,61.23c14.35,14.36,28.34,30.66,31,49.75,1.26,9.22-.21,18.72,2.66,27.67,4,12.63,16,22.07,21.48,34.27,12.64,28.27-13.07,57.86-13,88.1,0,9.1,2.38,18.42-.09,27.18-5.1,18.1-27.51,25.88-46.39,33s-39.69,21.07-36.06,39.67c1.73,8.88,8.87,16.13,12.61,24.52,5.71,12.76,3.2,27,.43,40.36A1517.73,1517.73,0,0,1,940.38,1271c-15.25-35-48.16-61-71.28-92.33-26.89-36.44-40.12-79.59-48.6-122.47a647,647,0,0,1-1.18-245.81c5.89-31,14.29-62.13,31.84-89,9.2-14.08,21.16-27.06,36.87-35s35.58-10.42,52.39-3.68"/><path class="cls-1" d="M935.24,687.31a524.92,524.92,0,0,1,58.59,46.74,340.38,340.38,0,0,1,25,25.07c7.48,8.52,14.42,18.06,17.94,29,3.73,11.55,1.1,23.79,4.37,35.36,2.82,10,10.12,17.66,16,25.87,6.2,8.62,9.68,17.79,9.07,28.51-.58,10.28-4.13,20.21-7.47,29.85s-6.92,19.57-8.32,29.86a75.62,75.62,0,0,0-.18,16.88c.52,6.19,1.23,12.59-.56,18.65-2.6,8.72-9.88,14.77-17.48,19.17-8.3,4.81-17.36,8.07-26.3,11.46-15.68,5.94-36.85,16.77-38.93,35.62-1.13,10.29,5.14,18.49,10.16,26.81,6.48,10.74,7,22.37,5.06,34.52-2,12.6-5.06,25.09-7.89,37.52q-4.3,18.94-9.09,37.76-9.74,38.2-21.43,75.89-2.88,9.29-5.89,18.54l4.57-.6c-16.87-38.26-51.89-64-75.21-97.85-25.41-36.89-37.86-80.63-45.92-124.21a647.23,647.23,0,0,1-10.16-146.33,639.33,639.33,0,0,1,7.54-73.58c3.63-22.36,8.12-44.77,15.66-66.18,13.6-38.63,42.94-83.82,89.72-80.14a54.65,54.65,0,0,1,15.59,3.64c3,1.17,4.3-3.67,1.33-4.82-20.22-7.88-43.59-3.56-61.47,8.06s-31,29.94-40.38,49c-10.11,20.46-16.28,42.57-20.83,64.85a634.24,634.24,0,0,0-10.48,73.24,651.36,651.36,0,0,0,4.73,150c6.68,45.37,17.11,91.59,39.72,131.93,10.67,19,24.44,35.64,39,51.78,14.19,15.69,28.94,31.25,39.8,49.54a126.92,126.92,0,0,1,7,13.62c.93,2.11,4,1.26,4.57-.59A1523.36,1523.36,0,0,0,984,1117.75c2.45-11.53,5.39-23.49,4.09-35.35a43.68,43.68,0,0,0-5.14-16.39c-2.55-4.63-5.76-8.87-8.17-13.59-10.51-20.59,12.22-35.5,28.62-42.37s37-11.81,47.5-27.7c6.42-9.75,4.83-20.77,4.14-31.79s1.9-21.55,5.33-32c6.2-18.83,15.91-39.66,8.14-59.52-3.82-9.78-11.29-17.25-17-25.87a38,38,0,0,1-6.37-15.28c-1-6.32-.5-12.77-1.06-19.13-2-23-18.6-41-34.26-56.44a526,526,0,0,0-57-48.65q-7.42-5.49-15-10.71c-2.66-1.83-5.16,2.5-2.52,4.31Z"/><path class="cls-2" d="M941.9,683.27c-9.7-1.25-18.8,5.17-23,13.11s-4.52,17.13-4.79,26q-3,97.5-5.93,195c-.43,14-.85,28.05.94,42,1.69,13.16,5.33,26.12,6.47,39.32,3.27,38.07-14.33,74.25-21.92,111.54a219.22,219.22,0,0,0,11.37,124.06,180.56,180.56,0,0,1-35.92-22.94L883,1318.94c6.23,48.36,11.67,100.54-14.77,142.06a924.89,924.89,0,0,1-18.89-110.27,392.34,392.34,0,0,0-51.46,42c-5.09-26.81,4-54.3-1.27-81.08-2.85-14.39-9.74-27.9-14.82-41.82-16.48-45.26-13.44-93.79-20-140.88s-26.89-97.72-72.7-121.09c-9.58-4.88-20.06-8.45-28.54-14.82-18.66-14-23.46-37.92-24.72-59.65-4.8-82.6,22.48-163.53,60.35-237.68,14-27.38,30.56-55.26,58.3-71.67s69.68-17,91.79,6.39c9,9.52,14.49,22.43,26.61,28.32,11.71,5.69,25.69,3,38.81,2.88s29.1,5.18,31.2,17"/><path class="cls-3" d="M941.9,680.77c-16.07-1.52-26.8,12.43-29.14,26.9-1.4,8.68-1.22,17.63-1.48,26.39l-.94,30.83q-1.86,61.26-3.73,122.5c-.6,19.91-2,40-1,59.91,1,19.38,7.28,38,7.86,57.41,1.14,37.54-16.18,72.3-22.89,108.6A223.22,223.22,0,0,0,902.65,1235l3.67-2.82a183.8,183.8,0,0,1-35.41-22.55c-1.44-1.17-4.58-.62-4.27,1.77q7,54.12,13.94,108.25c3.9,30.37,7.67,61.62,2.88,92.12-2.67,17-8.22,33.36-17.4,48l4.57.59a932.53,932.53,0,0,1-18.8-109.6c-.19-1.71-2-3.34-3.76-2.16a404.5,404.5,0,0,0-52,42.34l4.18,1.11c-3.59-20,.46-40.14.54-60.22a100,100,0,0,0-3.62-28.23c-2.68-9.35-6.65-18.27-10.25-27.29-14.87-37.27-16.32-77-19.47-116.52-2.57-32.17-7.27-64.13-21.18-93.58-13.26-28.08-34.25-50.7-62.63-63.7-8.43-3.87-17.26-7.45-24.33-13.63a53.4,53.4,0,0,1-13.57-19c-6.63-15.19-7.62-32.31-8-48.66-.8-38.69,5.35-77.2,16-114.32,10.72-37.34,25.88-73.28,43.44-107.9,14.92-29.41,33.07-60.67,63.87-75.74,25.46-12.46,62.06-13.12,82.94,8.52,10.49,10.86,16.58,25.83,31.95,30.92,16.11,5.34,33.33-1.54,49.51,3.38,6.69,2,13.36,5.93,14.91,13.23.66,3.14,5.49,1.81,4.82-1.33-2.93-13.84-19.67-18.51-32-18.85-9.07-.25-18.13,1.28-27.2.48-9.51-.83-17.06-5-23.28-12.14-5.25-6-9.34-13-14.84-18.83a56.06,56.06,0,0,0-17.47-12.39c-13.22-6-28.2-7.63-42.55-5.89-32.8,4-57.83,25.5-75.71,52.18-10,14.85-18,30.93-25.79,47C677.9,727.18,670,745.2,663,763.57c-14,36.87-24.29,75.29-28.38,114.59a326.66,326.66,0,0,0-1.12,58.75c1.16,15.18,4.09,30.92,12.43,43.93a54.79,54.79,0,0,0,15.65,16c8.14,5.46,17.49,8.71,26.17,13.15a113,113,0,0,1,36.5,30c19.65,24.43,29.84,55.51,34.55,86.14,6.11,39.72,4.53,80.35,13.39,119.69a202.89,202.89,0,0,0,8.78,29c3.61,9.31,7.76,18.41,10.73,28,6.32,20.4,3.28,41.06,2.28,61.94a126.37,126.37,0,0,0,1.45,28.69c.34,1.93,2.93,2.32,4.18,1.11a395.84,395.84,0,0,1,51-41.56l-3.76-2.16a944.64,944.64,0,0,0,19,110.93c.5,2.18,3.47,2.35,4.56.6,16.38-26.07,20.87-56.88,20.18-87.19-.77-33.74-6.51-67.39-10.81-100.81l-8.1-62.88-4.27,1.77a189.29,189.29,0,0,0,36.43,23.33c1.73.85,4.54-.61,3.67-2.83a220.23,220.23,0,0,1-14-107c4.31-35.06,19.76-67.6,24-102.66,2.21-18.33-.67-35.51-4-53.47-3.63-19.34-3.22-38.58-2.63-58.15q1.78-58.74,3.58-117.5l2-65.83c.3-10-.27-20.89,4-30.15,3.87-8.32,12.15-14,21.45-13.14,3.2.3,3.18-4.7,0-5Z"/><path class="cls-4" d="M1060.49,911.6c-3.88-6.24-14.27-9-21.29-12.18-1.66-.77-3.71-1.41-5.26-.55-1.3.72-1.75,2.23-2.72,3.3-2.2,2.43-6.46,2.06-9.74.85s-6.48-3.06-10-2.94c-4.28.14-7.61,3.17-10.48,6l-12.6,12.4a3,3,0,0,0-.08,5.14c3.81,4.25,8.46,7.8,13.09,11.31,6.42,4.89,13.75,10.06,22,9.59,4.46-.25,8.54-2.17,12.4-4.16,6.12-3.15,12.16-6.61,16.88-11.35s8-10.93,7.8-17.41"/><path class="cls-4" d="M1062.65,910.33c-3-4.69-8.21-7.25-13.18-9.36-2.6-1.1-5.24-2.07-7.83-3.19-2.9-1.25-6.28-2.86-9.27-.87-1.34.89-1.88,2.25-2.86,3.43a3.55,3.55,0,0,1-2.75,1.12c-3,.1-5.62-1.27-8.29-2.34-3.24-1.31-6.68-2.08-10.12-1a20.94,20.94,0,0,0-8,5.16c-2.63,2.49-5.17,5.08-7.75,7.61l-4.2,4.14c-1.32,1.3-3,2.58-3.64,4.37-1.33,3.66,2.28,6.69,4.65,8.94a104.33,104.33,0,0,0,8.57,7.12c5.28,4.07,10.68,8.28,17.09,10.41a22.17,22.17,0,0,0,9.66,1.07,32.64,32.64,0,0,0,10.19-3.3c12.69-6.14,28.43-15.93,28.06-32-.07-3.22-5.07-3.23-5,0,.29,12.26-11.32,20.14-20.91,25.28-5.21,2.79-10.84,5.88-17,5-5.76-.79-10.86-4.28-15.43-7.65-5-3.69-10.07-7.47-14.26-12.08a7.88,7.88,0,0,1-.7-.83c-.06-.08-.25-.59-.27-.41s.15-.09.18-.12a10.49,10.49,0,0,1,.74-.75l4-4,7.35-7.23a29.84,29.84,0,0,1,6.24-5.25c2.54-1.4,5.06-1.18,7.72-.24,4.94,1.75,11,5.13,16.06,1.59a8,8,0,0,0,1.84-1.82,20.2,20.2,0,0,1,1.21-1.8c.75-.82,2.11-.21,3,.15,2.58,1.06,5.14,2.16,7.73,3.2,4.5,1.82,10.11,4,12.8,8.15,1.74,2.7,6.07.19,4.32-2.53Z"/></svg>