<svg id="Layer_1" data-name="Layer 1" xmlns="http://www.w3.org/2000/svg" viewBox="0 0 1729 1729"><defs><style>.cls-1{fill:#4f3d2b;}.cls-2{fill:#edc08b;}.cls-3{fill:#725c44;}.cls-4{fill:#a0340e;}</style></defs><title>Love Poem</title><polygon class="cls-1" points="1053.85 671.29 1041.08 687.16 979.3 649.01 1053.85 671.29"/><path class="cls-2" d="M999.92,641.92s68.88,55.54,77.58,76.67,7.46,39.78,8.7,58.42,0,24.86,8.7,31.08S1126,835.43,1126,835.43s22.38,17.4,5,29.83-24,16.36-23.3,21,7.86,11.14,7.86,11.14l-34.72,25.55,32.1,5.89s-7.21,9.17-5.9,15.07,8.52,21.62,5.24,29.48-7.2,22.27-28.17,23.58-62.23-3.27-62.23-3.27-17.69,3.93-28.83,19-21,43.89-23.58,55S957,1116.16,955,1130.57s-103.51-6.55-121.19-17.69S841,834.45,841,834.45l72.07-161.16Z"/><path class="cls-3" d="M932.3,811.85a43.85,43.85,0,0,0-10.12,48c2.08,5.16,3.67,9.88,3.67,13.3,0,10.18-30.46,26.79-31.12,43s46.16,25.69,28.9,48.9c-14.45,19.41,71.41,64.78,36.76,75.77-23,7.28,29.64,43.27,33,49.27,9,16.08-54.48-11.86-85.62-11.86s-87.45,27.94-99.35,27.94-56.29-13.81-67.28-18-77.25-3.63-91-4.16c-36.63-1.41,26.33-23.23,34.57-30.77s5.5-31-6.41-45.23-30.07-55.51-12.66-79,31.89-53.38,31.89-53.38,23.82-21.77,13.74-69.52,29.31-114.74,39.39-124,75.11-63.65,89.76-65.33c0,0,66-20.1,84.27-20.1s64.26,7.6,83.5,21.84,50.23,46,45.65,52.7-48.79-25.24-52.33,2c0,0-22.93,32.35-26.86,51.52-2.58,12.58-19.55,11.39-12.92,30.61,3.65,10.58-24.83,15.65-19.41,27.5,8.74,19.08.6,16.5-3,21.11a53.58,53.58,0,0,1-5.09,5.86Z"/><path class="cls-4" d="M1115.51,897.35s5.73,5.69-.88,9.78a116.64,116.64,0,0,1-13.41,7s14.58,9.14,14.39,11.47-2.53,5-12.84,4.86-22-7.56-22-7.56.6-3.33,7.21-7S1110.75,896.12,1115.51,897.35Z"/></svg>