<svg id="Layer_1" data-name="Layer 1" xmlns="http://www.w3.org/2000/svg" viewBox="0 0 1729 1729"><defs><style>.cls-1{fill:#e6bb93;}.cls-2{fill:#d69732;}</style></defs><title>Love Poem</title><path class="cls-1" d="M1022.11,667.94s17.93,39.71,17.93,50,14.09,39.71,14.09,44.84-11.53,33.31-2.56,50,39.71,58.93,39.71,58.93,12.81,19.21-3.84,25.62-29.46,9-30.74,14.09,10.24,15.37,1.28,24.34S1040,960,1047.73,974.11s17.93,48.68,7.68,56.37-20.49,21.78-64.05,24.34-79.42,2.56-79.42,2.56v29.46s-1.28,14.1-14.09,26.91-32,44.83-34.59,53.8-25.62,35.87-25.62,35.87-74.3-135.79-83.27-137.07-84.55-93.52-84.55-93.52l53.8-329.23S964.46,512.93,1022.11,667.94Z"/><path class="cls-2" d="M915.78,639.76s6.41,39.71,14.09,51.24S976,716.62,968.3,729.43s-60.21,19.22-60.21,28.18,5.13,73,5.13,73-21.78,24.34-32,1.29-43.55-61.5-43.55-61.5-35.87-23-53.81-7.68-33.31,41-24.34,58.93-20.49,16.65-21.78,32S715.94,896,714.66,911.34s-43.56,39.71-43.56,39.71-2.56-55.08-7.69-61.49-21.77-21.78-21.77-26.9-9-32-9-32-30.75-19.21-25.62-65.33,25.62-146,78.14-176.78,91-51.25,144.76-47.4,107.61,12.81,133.23,24.34,50,32,58.93,48.68,16.65,47.4,16.65,47.4-29.46-17.94-55.08-25.63S873.51,600.05,915.78,639.76Z"/><path class="cls-2" d="M837.64,921.59l29.46,70.46,16.65,50,28.19,15.37s61.49,5.12,70.46,1.28,38.43,2.56,48.67-3.84,25.63-14.09,25.63-38.43a103.56,103.56,0,0,0-9-42.28s-14.09,10.25-19.22-6.4,3.85-24.34,16.66-28.19l12.81-3.84s5.77-3.29,2.24-13.82-3.93-15.74-3.93-15.74-10.93,7.44-13.55,7.87-11.37,11.81-16.18,11.37-28.85-14.86-53.77-27.1-39.79-27.55-47.66-41.1a145.4,145.4,0,0,1-11.91-26.53l-32,1.29s-.21,8.63-1.52,23.49-.44,40.66-9.62,45.91S832.33,913.88,837.64,921.59Z"/></svg>