<svg id="Layer_1" data-name="Layer 1" xmlns="http://www.w3.org/2000/svg" viewBox="0 0 1729 1729"><defs><style>.cls-1{fill:#ebbf87;}.cls-2{fill:#66471f;}.cls-3{fill:#911645;}</style></defs><title>Love Poem</title><path class="cls-1" d="M990.79,693.86s25.62,28.1,25.62,64.58-8.26,54.18,7.36,76.06,41.39,34.61,39.35,44.09-10.08,18.59-19,23.54-10.75,10.93-8.23,14.12,11.84,6.22,8.67,11.85-23.76,22.5-23.76,22.5l8.31-2.43,11.07,12.48-8.72,11.74s11.54,13.72,7.11,25.19-3.82,29.33-41.22,28.44-54.48-5.4-59.83-4.29-19,4-23.86,25.44.18,36.57,3.82,45.11,19.67,31.89,19.67,31.89-49.82,11-74.25,9.88-70.42-4.56-82.24-7.68-66.14-183.49-66.14-183.49l59-261.67Z"/><path class="cls-2" d="M979,642.77s-16.74-8.92-30.25-14.17-55.16-17.67-65.3-18.66-79.66-28.07-139.51,9.21-87.23,69.66-100.46,113.36S624.78,902,624.78,902s17.66,185.41,19.67,226.63,53,317.68,58.28,342.88,25.11,36.41,15-64.49,17.77-198.75,30.63-221.15,56.45-149.83,52.08-170.83,1.8-63,1.48-71.1,2.39-11-3.84-13.52S773,917.14,772.07,912.59s-2.61-42.23-2.61-42.23l-1-52.55s14.37-6.32,29.17,7.7,37.75,30.64,44.22,29.76,45.49-5.19,44.89-24.08,8.61-52.17,19.11-63.39,57.34-53.29,57.34-53.29,14.82-18.17,27.57-20.65,27.6-9.83,7.88-30.46Z"/><path class="cls-3" d="M1044.59,928.1s2-5.14-.92-5.92-4.54,6.05-6.26,7.8-7.41,9-11.75,12.65-12,11.32-12,11.32,9.62.55,15.74,2.06a38.6,38.6,0,0,1,10.83,4.64s5.67-6.69,1.27-11.11-7.14-7.55-7.14-7.55S1045.52,934,1044.59,928.1Z"/></svg>