<svg id="Layer_1" data-name="Layer 1" xmlns="http://www.w3.org/2000/svg" viewBox="0 0 1729 1729"><defs><style>.cls-1{fill:#e6bb93;}.cls-2{fill:#2b221d;}</style></defs><title>Love Poem</title><path class="cls-1" d="M892.18,656.49c40.35-3.24,79.83,19.87,103.57,52.66s33.5,73.91,35.71,114.34c1.43,26.22.46,54.44,15.1,76.24,5.6,8.34,13.24,15.25,18.23,24,2,3.51,3.6,7.6,2.69,11.55-2.19,9.44-15,10.24-23.92,14-17.2,7.16-22.35,28.59-25.25,47l-11.41,72.52c-.77,4.94-1.91,10.45-6.09,13.19-3,2-6.81,2-10.37,1.69-25.8-2-49.71-15.08-75.47-17.48-10.36-1-22,.32-29,8-4.6,5-6.46,11.84-8.25,18.39a790.77,790.77,0,0,1-40.28,112.68A343.71,343.71,0,0,0,710.51,1054c-17.37-11.36-37.61-23.63-41.38-44-1.11-6-.62-12.15-.13-18.22q5.7-70.11,11.41-140.2c2.15-26.53,4.8-54.46,20.11-76.23,12.11-17.21,30.81-28.51,49.58-38C798.83,712.56,853,695.76,893,658.58"/><path class="cls-1" d="M892.18,659c24.24-1.84,48,5.81,68.07,19.25,21.19,14.2,37.29,34.44,48.23,57.35,11.51,24.09,17.36,50.67,19.71,77.16,2.27,25.48-.11,52.57,10,76.65a70.85,70.85,0,0,0,9.33,15.92c4.09,5.3,8.75,10.17,12.57,15.68,3.25,4.69,7.67,11.76,3.24,17.08-3,3.58-8.31,4.82-12.58,6.11-4.69,1.41-9.42,2.82-13.52,5.6a36.56,36.56,0,0,0-10.07,10.44c-5.86,9-8.55,19.77-10.42,30.18-2.58,14.29-4.57,28.7-6.83,43l-3.74,23.81c-.57,3.61-1.12,7.22-1.71,10.83-.46,2.89-.92,6-2.32,8.6-3.4,6.37-11.89,4.63-17.79,3.77a156.55,156.55,0,0,1-19.83-4.47c-13.39-3.81-26.55-8.62-40.29-11.07-11.23-2-24.09-3.05-34.38,2.91-11.4,6.61-13.53,20.43-16.85,32.05a790.24,790.24,0,0,1-29,83.59q-4.23,10.3-8.77,20.47h4.32a345.76,345.76,0,0,0-128.46-152.57c-16.24-10.61-37.65-23-39.91-44.46-.68-6.49.13-13.08.66-19.56l1.68-20.65L677,924.31c2.2-27,4.21-54,6.62-81,2.06-23.08,5.42-47.36,19.08-66.78,13.55-19.26,35.37-30.72,56-40.78,41.53-20.22,86.13-35.66,123-64.29q6.8-5.28,13.12-11.13c2.36-2.19-1.18-5.71-3.54-3.53-35,32.38-80.51,49.2-123.1,69-20.93,9.71-42.81,19.87-59.51,36.19-17.14,16.76-24.61,39.23-27.93,62.47-1.74,12.23-2.61,24.55-3.61,36.86l-3.4,41.84q-3.44,42.12-6.85,84.23c-1,12-1.91,23.65,3.91,34.63,4.74,8.93,12.45,15.88,20.43,21.88,8.64,6.49,18,12,26.81,18.19a333.76,333.76,0,0,1,27,21,342.87,342.87,0,0,1,83.31,108.13q3.68,7.53,7,15.24c.71,1.65,3.6,1.62,4.32,0a802.35,802.35,0,0,0,32-84.3q3.45-10.94,6.58-22c1.79-6.32,3.08-13.12,6-19,6.05-12,19.64-13.69,31.75-12.44,14,1.44,27.39,6.09,40.76,10.14,6.81,2.06,13.66,4,20.64,5.41,6.12,1.21,12.94,2.61,19.18,1.74s10-5.27,11.67-11.09c2-7,2.56-14.59,3.69-21.76l7.32-46.55c3.19-20.27,5.62-48.71,28.54-56.27,8.39-2.77,20.62-4.81,22.33-15.35,1-6.47-2.82-12.67-6.44-17.68-4-5.49-8.65-10.39-12.72-15.79-16.41-21.82-15.53-50.29-16.84-76.24-1.36-26.81-5.77-53.73-15.49-78.84-9.28-24-23.37-46.1-43-62.86-18.53-15.79-41.32-26.86-65.69-29.38a99.32,99.32,0,0,0-17.67-.23c-3.19.24-3.22,5.25,0,5Z"/><path class="cls-2" d="M920.65,681.22a126.15,126.15,0,0,1-11.17,82.3c-2.18,4.24-4.69,8.47-8.48,11.37-4.13,3.14-9.34,4.39-14.27,6a89.91,89.91,0,0,0-52.3,45.71c-3.19,6.59-5.62,13.67-10.22,19.37a31.3,31.3,0,0,1-54.68-11.84c-2.45-9.54-.3-19.7-1.94-29.41s-9.89-19.94-19.48-17.7c-4.65,1.09-8.15,4.8-11.3,8.38-18,20.49-35.12,46.25-30,73.06,4.11,21.52,22.11,39.65,21.45,61.55-.44,14.5-9.37,27.69-20.73,36.71S682.46,981.25,669,986.64c-11-21.68-13.2-46.59-17.53-70.53s-11.88-48.91-30.31-64.79c-9.65-8.32-22.44-14.47-26.9-26.4-2.38-6.4-1.9-13.46-1.38-20.27l5.21-68.52a51.31,51.31,0,0,1-40.41,2c53.42-37.82,100.22-85.26,157.59-116.76a337.09,337.09,0,0,1,148.13-41.15c47.66-1.9,95.07,6.36,142.08,14.44,12.72,2.19,26.68,4.17,37.83-2.33,3.34-1.94,6.33-4.61,10-5.79,10.23-3.27,19.88,5.86,26.77,14.1,14.85,17.78,30.66,40.6,22.22,62.17-8.09,20.68-33.4,27.22-51.78,39.67a79.45,79.45,0,0,0-28.9,35.7c-14.2-17.16-28.65-34.54-47-47.18s-41.39-20.14-63.11-15.19"/><path class="cls-2" d="M918.24,681.89A124.29,124.29,0,0,1,915,743.51,120,120,0,0,1,909.41,758c-2,4.41-4.22,9.14-7.56,12.74-3.66,3.94-8.61,5.51-13.6,7.07a100.33,100.33,0,0,0-12.42,4.77,92.69,92.69,0,0,0-39.15,34.8c-5.08,8.15-7.74,17.68-13.26,25.53a29.5,29.5,0,0,1-23,12.2,28.74,28.74,0,0,1-22.56-10.33c-7-8.16-7.1-18.14-7.07-28.33,0-9.43-.86-18.64-7.39-26-5.45-6.12-14-8.26-21.06-3.58-3.94,2.6-7,6.36-10,9.91-3.18,3.74-6.25,7.58-9.15,11.54a117.18,117.18,0,0,0-14.83,26,64.27,64.27,0,0,0-4.83,27.79c.61,9.21,3.74,17.78,7.64,26.07,7.56,16,18.57,32.64,13.06,51.11-5.81,19.47-24.05,31.11-41.58,38.95-4.71,2.11-9.5,4-14.3,5.94l2.83,1.15c-16.09-32-13.07-69.51-26-102.59-5.88-15-14.71-27.8-27.64-37.57-6-4.49-12.48-8.63-17.14-14.57-5.85-7.47-5.69-16.49-5-25.51q2.58-34.5,5.25-69c.16-2-2.2-2.92-3.76-2.16a49.35,49.35,0,0,1-38.49,1.78l.6,4.57c40.75-28.9,77.4-63.11,118.21-91.92,20.73-14.63,42.54-27.65,65.79-37.85A335.8,335.8,0,0,1,816.78,588a347.89,347.89,0,0,1,79.65-5c28.07,1.33,55.91,5.36,83.61,10,12.93,2.15,25.94,5.14,39,6.17a52.32,52.32,0,0,0,17.15-1.14c5.78-1.5,10-4.9,15.13-7.74,11.21-6.25,21.69,5.85,28.13,13.66,7.8,9.45,15.48,19.71,19.74,31.32,3.92,10.67,4.21,22.26-2,32.16-5,8-13.1,13.4-21.15,18-8.49,4.83-17.44,8.89-25.63,14.25a82.73,82.73,0,0,0-23.79,23.69,83.58,83.58,0,0,0-7.48,14.31l4.18-1.1c-22.39-27-47.44-56.27-83.73-63.23a71.27,71.27,0,0,0-28.8.22c-3.14.69-1.81,5.51,1.33,4.82,34.7-7.63,66.08,15.15,88.33,39.23,6.71,7.26,13,14.88,19.33,22.49,1.34,1.62,3.54.44,4.18-1.1a77.58,77.58,0,0,1,20.42-28.52c7.9-7,17.31-11.72,26.57-16.61,8.66-4.56,17.52-9.34,24.5-16.33a38.5,38.5,0,0,0,11.64-27.27c0-11.83-5.27-23-11.52-32.83a166.78,166.78,0,0,0-10.89-14.88c-3.73-4.61-7.56-9.18-12.22-12.88-4.14-3.29-9-6-14.43-6.15-6.06-.19-10.41,3.34-15.29,6.34-10.86,6.67-24.33,4.65-36.23,2.62-55.35-9.45-111.37-19.15-167.65-12.73a344.41,344.41,0,0,0-146.18,52.25c-42.94,27.43-80.38,62.25-121,92.86q-7.6,5.73-15.38,11.26a2.54,2.54,0,0,0,.59,4.57,54.37,54.37,0,0,0,42.34-2.28l-3.76-2.16-4.72,62.1c-.7,9.23-2.27,19.22,1.26,28.07,2.78,7,8.23,12.15,14,16.66,6.28,4.89,12.93,9.23,18.39,15.09a78.15,78.15,0,0,1,13.35,20.42c7.21,15.49,10.29,32.48,13,49.22,3.34,20.56,6.47,41.4,15.92,60.21a2.5,2.5,0,0,0,2.82,1.15c18.49-7.39,37.93-15.31,50.49-31.53a49,49,0,0,0,10.45-25c.89-9-1.59-17.8-5.06-26-3.63-8.54-8.34-16.56-12-25.09-3.85-9-5.86-18.41-4.9-28.23,2-20.38,14.86-38.54,27.8-53.63,3-3.52,6.27-7.93,10.73-9.69,4.08-1.61,8.24-.18,11.34,2.71,7.84,7.32,7.24,18,7.23,27.88s1.51,19,7.8,26.86a33.89,33.89,0,0,0,21.38,12.38,34.57,34.57,0,0,0,24.73-6.13c8.07-5.83,11.75-14.5,15.76-23.27a88.46,88.46,0,0,1,36.68-40.25,83.18,83.18,0,0,1,12.55-5.85c4.56-1.67,9.33-2.76,13.72-4.87,9.16-4.4,13.53-14.36,17.27-23.24a128.84,128.84,0,0,0,9.58-60.82,133.74,133.74,0,0,0-2.16-14.77c-.63-3.15-5.45-1.82-4.82,1.33Z"/></svg>