<svg id="Layer_1" data-name="Layer 1" xmlns="http://www.w3.org/2000/svg" viewBox="0 0 1729 1729"><defs><style>.cls-1{fill:#d9b78b;}.cls-2{fill:#121214;}.cls-3{fill:#ba7760;}</style></defs><title>Love Poem</title><path class="cls-1" d="M1022.93,1060.35s-45.09,5.34-66.67,11.42S905.47,1087.3,901.5,1108s-24.29,79.17-24.29,79.17l-163.05-91.38s23-44.49,11.86-92.84,52.34-214.58,52.34-214.58l162.16-103.3s66.41,57.3,71.85,76.61,6,78,16.68,89.71,41.31,37.34,47.81,47.83c5.62,9.08,7.56,17.79-5.95,25.51-13.35,7.64-21.23,12.51-21.23,12.51s6.73,16.19,8.73,20.7-22.68,27.37-22.68,27.37l19.93,16.81s-12.72-1.48-11.31,6.08,5.73,28,.83,33.77S1034.71,1058.24,1022.93,1060.35Z"/><path class="cls-2" d="M1019.78,646.05c-3.63-2.22-32-1.95-36.13-3-8.39-2.24-20.59-17-24.24-21.06-4.19-4.61-34.84,4.75-54.28,10.23s-19.12-1.13-12.61-3.69,20.61-11.59,7.71-13.74-52.54,6.12-82.81,16.81-84.1,30.2-111.7,45.21-68.27,68.43-80.34,100.05-.64,92.78,3.89,108.87,57.1,79.41,65.67,89.3,33.94,56.28,33.94,56.28,20-3.47,44.81-10.46,23.53,1.34,23.75-8.13-7.52-60.1-11.28-78.58,11.9-9.14,15.35-12.28,3.32-19,7.76-29,13.15-12.38,21.87-14.84,24.17,6.21,24.17,6.21,13.79-2.43,23-.67,11.93,8.94,35.15,40,17-9.12,17-9.12l-1.65-44.39c15,14.6,15,14.6,21.2,8.5s.56-21.14,4.51-30.21,7.87-31.15,12.32-46.16-11.95-78.38-11.95-78.38,34.79,33.61,44.51,42.44c7.41,6.73,11.21,25.28,12.6,33.77a1.29,1.29,0,0,0,2.46.29c3.31-7.75,9.89-25.09,8.49-37.79-1.85-16.85-11-13.53-15.79-25.22s-4.1-1.74,0,0,19.56,15.47,24.3,27.16,9.66,24-8,48.56,4.62,19,26.59,1.92,12.83-28.94,26-51.46c7.94-13.57,8.08-27.83,5.92-41.16a52.24,52.24,0,0,0-24.41-36.19ZM1061,778.19s-9.29-49-16.1-57.45l-1.4-1.15a3.5,3.5,0,0,1,1.4,1.15c4.12,3.48,16.14,14.15,18.41,22.21C1066.1,752.72,1061,778.19,1061,778.19Z"/><path class="cls-3" d="M1058.41,958s7.69,3.2,1.48,10.85a142.14,142.14,0,0,1-14.5,14.91s11,4.27,11.81,7-1.54,11.41-1.54,11.41-25.42-13.47-25.85-15,3-1.93,5.25-4.23S1058.41,958,1058.41,958Z"/></svg>