<svg id="Layer_1" data-name="Layer 1" xmlns="http://www.w3.org/2000/svg" viewBox="0 0 1729 1729"><defs><style>.cls-1{fill:#ff00f3;}</style></defs><title>Love Poem</title><path class="cls-1" d="M166,690.05l-5.19,262.5c-.07,3.33,0,7.11,2.54,9.33,2,1.78,4.93,2,7.62,2q134.34,3.86,268.7-3.7"/><path class="cls-1" d="M553.13,833.11c-26.08,18.84-38,55.6-26.8,85.77s45,50.5,76.69,45.16,57.25-36.53,55.2-68.64a70.77,70.77,0,0,0-8-27.85c-19-36.62-69.67-52.57-106.19-33.39"/><path class="cls-1" d="M713.26,843.94A272.29,272.29,0,0,0,744,964.89,1093.32,1093.32,0,0,0,839.41,846"/><path class="cls-1" d="M909.18,897.43c13-5.26,27.64-3.12,41.51-1.08s28.68,3.74,41.36-2.25,21.21-22.78,13.58-34.54c-7-10.78-22.27-11.41-35.11-10.86-15.78.68-32.42,1.62-45.65,10.26-25.7,16.77-26,58.07-5.41,80.85s54.86,28.75,85,23.08"/><path class="cls-1" d="M1110.26,960.57q35.61-179.18,80.84-356.26Q1224.55,689,1258,773.66A1372.13,1372.13,0,0,1,1310.92,579a1829.51,1829.51,0,0,1,82.84,386.17"/><path class="cls-1" d="M1466,891.41a120.66,120.66,0,0,0,71.1-5.7c3.78-1.52,7.89-3.68,9-7.6.82-2.85-.22-5.92-1.7-8.5-6.91-12.11-22.9-16.79-36.54-13.91s-25.2,11.85-35,21.74c-5.76,5.81-11.24,12.25-13.76,20-4.85,15,2.64,31.75,14.31,42.32S1500.21,956,1515,961.48c9.76,3.6,22.84,6.26,28.75-2.3"/></svg>