<svg id="Layer_1" data-name="Layer 1" xmlns="http://www.w3.org/2000/svg" viewBox="0 0 1729 1729"><defs><style>.cls-1{fill:#ff00f3;}.cls-2{fill:#2a07d6;}</style></defs><title>Love Poem</title><g id="Bi4msa.tif"><path class="cls-1" d="M1635.48,612.58v67.63c-2.3,4.94-6.15,9.73-6.67,14.85C1617,811.7,1563.35,906,1476.7,983.22Q1215.53,1216,954.87,1449.41c-26.63,23.77-53.86,46.87-80.81,70.27-6.49-4.5-10.44-6.65-13.7-9.58-203.64-183-408.48-364.74-610.28-549.78-94.78-86.9-136.17-201.17-132.39-327.93,4.43-148.51,72.52-267.15,191.05-355.95C383.8,220.2,466.29,188,563.19,199.72c90.41,10.95,166.41,51.89,237.73,104.53,25,18.46,49,38.36,71.08,55.72,45.94-32.94,87.28-66.3,132.14-94,89.54-55.18,186.66-89.16,291.95-59.63,161.66,45.33,265.7,153.79,317.57,312.42C1623.59,549.2,1628.34,581.28,1635.48,612.58Z"/></g><path class="cls-2" d="M1108.86,432.76s234.47-190.08,301.74,55.38S1426.87,352.82,1108.86,432.76Z"/></svg>