<svg id="Layer_1" data-name="Layer 1" xmlns="http://www.w3.org/2000/svg" viewBox="0 0 1729 1729"><defs><style>.cls-1{fill:#024959;}.cls-2{fill:#fff;}.cls-3{fill:#edc08b;}.cls-4,.cls-5{fill:#0082a5;}.cls-5{stroke:#0082a5;stroke-miterlimit:10;}</style></defs><title>Love Poem</title><polygon class="cls-1" points="714.8 673.36 743.59 646.22 680.27 656.5 714.8 673.36"/><path class="cls-2" d="M697,863.37a73,73,0,0,0-8.9,62c1.45,4.57,3.44,9.12,6.82,12.52,9,9.06,23.88,7.09,36.38,4.47,2.32-.48,4.78-1,6.47-2.69,2.09-2,2.5-5.19,2.65-8.1,1.36-28.31-13.72-56.84-37.89-71.64"/><path class="cls-3" d="M717.36,691.91c15.94,33.14,5.26,76.87-24.17,98.93-8.76,6.57-20.26,14.13-18.53,24.95,2.08,13,20,14.53,33.07,12.7,2.92,13.36-17.79,22.92-15.59,36.43,2.27,13.88,24.36,13.58,31.76,25.54,5.25,8.5.55,20.29-7.52,26.18S698,924,688.06,925.35l8.15,47.6c1,5.67,2.06,11.62,5.74,16s9.51,6.67,15.16,8.1c17.95,4.54,37,3.36,54.89,8.06,46,12.08,72.93,58.34,94.93,100.46,10.73,20.53,21.54,45.29,10.73,65.79a379.09,379.09,0,0,0,74.82-115.11c7.44-17.88,13.64-36.61,25.09-52.23,16.85-23,43.88-37.57,58.12-62.24,13.23-22.91,13.25-51.89,4.17-76.74s-26.43-46-46.16-63.57c-32-28.58-70.37-48.88-108.32-68.89L771,672.31c-12-6.33-25.33-12.87-38.59-10s-23.26,20.56-14,30.53"/><path class="cls-3" d="M715.2,693.17c10.87,22.89,8.77,50.8-3.57,72.68a76,76,0,0,1-11,15c-4.47,4.71-9.63,8.4-14.74,12.35-4.82,3.72-9.85,7.92-12.37,13.61a16.19,16.19,0,0,0,1.11,15.58c7,10.28,22.88,10,33.79,8.48l-3.08-1.75c1.57,8-6.73,15.12-10.9,21-4.72,6.64-7.18,15.1-1.67,22.1,5,6.33,13.42,8.59,20.24,12.24,3.45,1.84,6.9,4.09,8.92,7.54,2.56,4.36,2,9.75-.1,14.18-6,12.68-21.32,15-33.75,16.65a2.57,2.57,0,0,0-2.42,3.17l7,40.65c1.92,11.22,3,23.41,14.23,29.31,10.67,5.65,24,6.3,35.82,7.4,12.31,1.15,24.63,2.34,36.35,6.57,38.46,13.91,61.76,52.19,80.18,86.38,6.14,11.4,12.46,22.9,16.58,35.22,4.19,12.55,6,26.39-.27,38.58-1.25,2.44,1.89,5.19,3.93,3A381.64,381.64,0,0,0,946,1076.81c5.76-11.93,10.63-24.21,15.59-36.49s10.54-24.84,18.61-35.64c7-9.37,15.77-17.29,24.43-25.07,8.81-7.92,17.78-15.79,25.24-25.05A82.72,82.72,0,0,0,1046,922.71c6.13-24.52,1.33-50.54-10.09-72.76-11.58-22.52-29.37-41.34-48.78-57.33-20.84-17.18-43.9-31.36-67.48-44.43-25.21-14-50.88-27.14-76.38-40.58l-39.76-21c-13.17-6.94-26.2-14.37-39.66-20.73-10.89-5.14-24.5-9.78-36.26-4.58-8.29,3.66-14.94,12.37-15.31,21.56a16.55,16.55,0,0,0,4.3,11.76c2.14,2.41,5.66-1.14,3.54-3.54-6.13-6.91-1.37-17,4.7-22.2,9.59-8.16,23.58-4.43,33.93.14,12.93,5.7,25.27,13,37.76,19.55L835,708.86c24.74,13,49.59,25.9,74.17,39.25,22.71,12.33,45.11,25.42,65.71,41.09,38.1,29,75.23,72.17,68.05,123.54a77.23,77.23,0,0,1-12.74,33.15c-6.44,9.36-14.76,17.25-23.14,24.85S990.09,985.65,982.56,994A120.68,120.68,0,0,0,963,1024.4c-5.39,11.63-9.67,23.73-14.75,35.49q-7.5,17.35-16.72,33.9a376.79,376.79,0,0,1-43.28,62.13q-6,7-12.38,13.71l3.93,3c11.39-22.2.16-47.33-10.33-67.54-9.62-18.53-19.74-37-32.21-53.76-11.91-16-26.17-30.84-43.91-40.4a96.76,96.76,0,0,0-30.06-10.19c-13.24-2.19-26.75-2.32-39.93-4.85-6.16-1.19-13.25-2.61-18-7s-5.84-11.44-6.9-17.65q-4-23.29-8-46.6l-2.41,3.16c11.77-1.57,25.31-3.4,33.73-12.75,6.93-7.69,9.66-19.66,2.61-28.17-5.69-6.87-14.9-9-22.32-13.38-3.27-1.91-6.36-4.41-7.31-8.24-1-4.14.89-8.07,3.13-11.45,5.33-8,14.32-15.39,12.24-26-.28-1.45-1.82-1.91-3.07-1.74a52.37,52.37,0,0,1-16.34-.11c-4.47-.82-9.51-2.48-12.09-6.52-7.24-11.36,9-21.26,16.38-26.88,19.33-14.74,30.66-38.28,32.08-62.37a81.1,81.1,0,0,0-7.59-39.55c-1.38-2.91-5.69-.37-4.31,2.52Z"/><path class="cls-4" d="M680.88,654c31.81-5.14,59.59,10,84.34,30.68s45,46.31,69.94,66.67c47.59,38.75,110.9,57,152.26,102.3,17.74,19.45,39.8,46.43,58.56,64.9l78-108.73c6.7-15.53,15.94-30,20.78-46.23,10.25-34.32-1-72.37-22.13-101.26s-51.21-50-81.93-68.36a633.64,633.64,0,0,0-64.54-34.07c-17.11-7.73-75.63-12.67-93.92-8.41l-91.87,33.57a37.53,37.53,0,0,0-10.34,4.2c-35,20.39-113.6,16.67-151.33,9.83-2.85,9.67,45.44,47.39,52.16,54.91"/><path class="cls-4" d="M681.54,656.42c30.41-4.74,58.18,10.46,80.91,29.2,25,20.62,45.19,46.35,70.23,66.92,22.18,18.22,47.54,31.85,72.55,45.69S955.38,826.31,976.3,846c10.58,9.94,19.89,21.24,29.42,32.17,10.22,11.73,20.42,23.5,31.18,34.75q3.6,3.78,7.31,7.44a2.54,2.54,0,0,0,3.93-.5l24.44-34.06L1113.35,829l11.7-16.3c2-2.79,3.09-6,4.57-9.11,4.76-9.9,10.07-19.54,14.2-29.74,15.76-38.94,3.85-82.73-20.84-115.17-26-34.16-63.65-57.56-100.64-78.18-10.35-5.76-20.84-11.26-31.5-16.42-7-3.4-14-7-21.51-9.1-14-3.84-28.85-5.4-43.32-6.52-13.57-1-27.7-1.95-41.22.09-5.07.76-9.89,3-14.68,4.79l-63.89,23.34c-5.46,2-10.88,4.23-16.41,6a57.33,57.33,0,0,0-11,4.48,74.42,74.42,0,0,1-8.61,4.2A121.14,121.14,0,0,1,749,597.42c-16.7,3.41-33.87,4.48-50.89,4.6a418.64,418.64,0,0,1-49.69-2.59c-6.38-.72-12.75-1.6-19.07-2.74a2.55,2.55,0,0,0-3.07,1.74c-.91,3.48,1.39,7.07,3.31,9.77a98.87,98.87,0,0,0,11,12.45c9.13,9.13,19,17.55,28.67,26.06a116,116,0,0,1,9.87,9.06c2.17,2.39,5.69-1.15,3.54-3.53a91.39,91.39,0,0,0-7.7-7.15c-4.28-3.78-8.6-7.52-12.88-11.3-9.1-8-18.47-16.19-26.21-25.61A34.66,34.66,0,0,1,632,602.7a7.45,7.45,0,0,1-.82-2c-.21-.76-.19-.61-.09-1l-3.07,1.75A371.83,371.83,0,0,0,722.75,606c15.53-1.24,31.38-3.45,46.08-8.83a87.13,87.13,0,0,0,9.27-4c1.5-.76,2.95-1.62,4.43-2.42a46.81,46.81,0,0,1,8.52-3.27c1.32-.42,2.62-1,3.92-1.43l59.28-21.66,25-9.12c6.53-2.39,13.23-2.7,20.18-2.81A306.89,306.89,0,0,1,945,555.39a193.1,193.1,0,0,1,20.41,3.7c6.85,1.68,13,4.52,19.32,7.55a652.41,652.41,0,0,1,61.43,33.58c17.82,11,35.15,22.9,50.55,37.12,29.75,27.46,52.6,65.94,49,107.74a96.52,96.52,0,0,1-8,30.19c-4.41,10.17-9.88,19.84-14.48,29.93-2,4.48-4.93,8.15-7.81,12.17l-37.65,52.46-32.27,45-1.79,2.48,3.93-.5c-21.73-21.45-40.24-45.82-61.33-67.85-20-20.93-45-36.19-70.11-50.26-25.31-14.2-51.36-27.5-74.47-45.21-26-19.91-46.38-45.85-71-67.27-22.1-19.22-49-36.41-79.36-35.68a86.69,86.69,0,0,0-11.26,1.08c-3.17.49-1.83,5.31,1.32,4.82Z"/><path class="cls-5" d="M1024.17,586.47s14.56-20.93,29.13-5.46,19.11,18.2,6.37,32.76S1024.17,586.47,1024.17,586.47Z"/></svg>