<svg id="Layer_1" data-name="Layer 1" xmlns="http://www.w3.org/2000/svg" viewBox="0 0 1728 1728"><defs><style>.cls-1{fill:#613b1c;}.cls-2{fill:#efd2ab;}</style></defs><title>Love Poem</title><path class="cls-1" d="M846,624.29c-40.35-3.24-79.83,19.87-103.57,52.66s-33.5,73.91-35.71,114.34c-1.43,26.22-.45,54.43-15.1,76.24-5.6,8.34-13.24,15.25-18.23,24-2,3.51-3.6,7.6-2.69,11.55,2.19,9.44,15,10.24,23.92,14,17.2,7.16,22.35,28.59,25.25,47l11.41,72.52c.77,4.93,1.91,10.45,6.09,13.19,3,2,6.81,2,10.37,1.69,25.8-2,49.71-15.08,75.47-17.48,10.36-1,22,.32,29,8,4.6,5,6.46,11.84,8.25,18.39A792.44,792.44,0,0,0,900.77,1173a343.71,343.71,0,0,1,126.9-151.24c17.37-11.37,37.61-23.63,41.38-44,1.11-6,.62-12.15.13-18.22l-11.4-140.21c-2.16-26.52-4.81-54.45-20.12-76.22-12.11-17.21-30.81-28.51-49.58-38-48.73-24.69-102.92-41.49-142.93-78.68"/><path class="cls-1" d="M846,621.79c-24.45-1.85-48.77,5.7-69.17,19-21.37,13.92-38.09,33.67-49.6,56.34-12.09,23.79-18.56,50-21.54,76.43-1.52,13.51-1.75,27.07-2.54,40.64-.74,13-2.14,26.12-6.69,38.39a66.65,66.65,0,0,1-9.56,17.25c-4.08,5.33-8.71,10.21-12.62,15.68-3.67,5.15-7.53,11.62-6,18.21,1.05,4.48,4.46,7.69,8.46,9.68,4.45,2.21,9.34,3.29,14,4.86a29.35,29.35,0,0,1,12.87,8.31c7.11,8,10.14,19,12.23,29.24,2.89,14.2,4.69,28.67,6.94,43l3.66,23.27c1.11,7,1.54,14.65,3.76,21.45,1.85,5.65,5.7,9.61,11.77,10.36,6.44.81,13.48-.68,19.78-2,13.83-2.84,27.09-7.81,40.71-11.45,12.1-3.24,26.16-6.55,38.49-2.6A21.5,21.5,0,0,1,854,1049c3.12,6.21,4.43,13.39,6.33,20a790,790,0,0,0,29.81,85.51q4.11,9.93,8.47,19.74c.72,1.62,3.61,1.65,4.32,0a342.67,342.67,0,0,1,77.9-112.09c16.45-15.73,34.43-29.29,53.45-41.74,16.69-10.93,35.51-24.16,37.7-45.72.66-6.5-.13-13.08-.66-19.56l-1.76-21.74-3.41-41.84c-2.23-27.42-4.2-54.88-6.73-82.27-2.13-23-5.69-47.24-19.09-66.75-13.27-19.31-34.1-31.3-54.65-41.5-42.11-20.89-87.84-36.16-125.43-65.16-4.61-3.55-9-7.33-13.33-11.28-2.36-2.19-5.9,1.34-3.54,3.53,34.58,32,79.07,49,121.21,68.39,20.69,9.52,42.55,19.29,59.46,34.91a81.21,81.21,0,0,1,20.16,28.83c4.38,10.61,6.81,22,8.43,33.28,1.73,12.14,2.53,24.4,3.52,36.61l3.45,42.39q3.36,41.3,6.71,82.6c.55,6.68,1.44,13.53.58,20.23a36.13,36.13,0,0,1-5.32,14.49c-5.36,8.57-13.55,15.09-21.74,20.81-8.87,6.2-18.1,11.82-26.86,18.19q-13.65,9.9-26.28,21.1a346.7,346.7,0,0,0-81.1,106.53q-3.69,7.53-7,15.23h4.32a789.06,789.06,0,0,1-31.48-83.11q-3.45-10.92-6.58-21.94c-1.77-6.23-3.16-12.69-5.81-18.63-5-11.21-15.5-16.2-27.32-16.81-13-.68-26.17,3-38.52,6.64-13.21,3.93-26.34,8.56-40,10.46-6.15.86-14.4,2.34-17.51-4.55a31.11,31.11,0,0,1-2-7.91c-.65-4-1.25-7.93-1.88-11.9l-7.32-46.55c-3.19-20.28-4.9-47.91-24.15-60.23-4.17-2.67-8.93-4-13.62-5.42-4.13-1.25-9.29-2.55-12.09-6.13-4.25-5.43.44-12.6,3.7-17.24,3.89-5.53,8.59-10.43,12.69-15.8,16-21,16.74-47.89,17.81-73.13,1.13-26.58,4.63-53,13.51-78.22,8.53-24.23,22-46.83,41.26-64.07,17.9-16.05,40.63-27.67,64.73-30.18a98.4,98.4,0,0,1,17.67-.22c3.21.24,3.2-4.76,0-5Z"/><path class="cls-2" d="M817.53,649a126.15,126.15,0,0,0,11.17,82.3c2.18,4.24,4.69,8.47,8.48,11.36,4.13,3.15,9.34,4.4,14.27,6a89.91,89.91,0,0,1,52.3,45.71c3.19,6.58,5.63,13.67,10.22,19.37a31.3,31.3,0,0,0,54.68-11.84c2.45-9.54.31-19.7,1.94-29.42s9.9-19.93,19.49-17.69c4.64,1.09,8.14,4.8,11.29,8.38,18,20.49,35.12,46.24,30,73.06-4.11,21.52-22.11,39.64-21.45,61.55.44,14.5,9.37,27.69,20.74,36.71s25,14.52,38.52,19.91c11-21.68,13.2-46.59,17.53-70.53S1098.6,835,1117,819.12c9.65-8.32,22.45-14.47,26.9-26.41,2.38-6.39,1.9-13.45,1.38-20.26l-5.21-68.52a51.31,51.31,0,0,0,40.41,2c-53.42-37.82-100.22-85.26-157.59-116.76a337.09,337.09,0,0,0-148.13-41.15c-47.66-1.9-95.07,6.36-142.08,14.44-12.72,2.19-26.67,4.17-37.83-2.33-3.34-1.95-6.32-4.61-10-5.79-10.23-3.27-19.89,5.86-26.78,14.1-14.85,17.78-30.66,40.6-22.22,62.17,8.09,20.68,33.4,27.22,51.78,39.67A79.42,79.42,0,0,1,716.56,706c14.2-17.15,28.66-34.53,47-47.17s41.39-20.14,63.11-15.19"/><path class="cls-2" d="M815.12,648.36a129.64,129.64,0,0,0,2.44,61.55c2.78,9.62,6.52,19.74,12.11,28.12a25.56,25.56,0,0,0,10.55,9.35c4.41,2,9.16,3.14,13.7,4.82a87.51,87.51,0,0,1,42.38,34.08c5.23,8.06,8,17.34,13.14,25.42a34.56,34.56,0,0,0,20.93,15.17,34.11,34.11,0,0,0,40.37-23.13c3.19-10.59,0-21.82,2.66-32.42,1.85-7.31,8.89-17.11,17.6-13.59,4.59,1.85,7.92,6.4,11,10,3.32,3.89,6.52,7.88,9.51,12,6,8.34,11.4,17.34,14.76,27.1,3.25,9.46,4.56,19.64,2.5,29.52-1.9,9.16-6.22,17.52-10.39,25.82-4,8-8.2,16.28-10,25.17a43.69,43.69,0,0,0,2.74,26.41c8.05,18.53,25.83,29.57,43.63,37.35,4.55,2,9.15,3.84,13.76,5.68a2.49,2.49,0,0,0,2.82-1.15c16.26-32.37,13.43-70,26.37-103.39a86.71,86.71,0,0,1,12.07-21.93c5-6.42,11.11-11.35,17.6-16.12,5.94-4.38,12-8.91,16.11-15.18,4.92-7.57,5-16.46,4.42-25.16-1.68-23.34-3.55-46.66-5.32-70l-3.76,2.16a54.37,54.37,0,0,0,42.34,2.28,2.54,2.54,0,0,0,.59-4.57c-41.77-29.63-79.25-64.86-121.32-94.1C1039.3,595,1017,582.13,993.26,572.09a340,340,0,0,0-75.36-22A359.57,359.57,0,0,0,836.43,546c-28.32,1.67-56.41,5.94-84.36,10.64-12.89,2.17-26.18,5.62-39.31,5.42-6.12-.1-12.13-1.31-17.38-4.54-4.89-3-9.24-6.53-15.3-6.34-11.63.35-20.27,11.1-26.94,19.39-7.69,9.56-15,19.82-19.14,31.46-3.82,10.63-4.16,22.21.89,32.5,4.19,8.54,11.65,14.83,19.56,19.82,8.49,5.35,17.67,9.48,26.32,14.56a79.67,79.67,0,0,1,25,22.48,78,78,0,0,1,8.43,15.26c.64,1.54,2.84,2.72,4.18,1.1,21.39-25.83,44.93-53.86,79.28-61.48a65.78,65.78,0,0,1,28.38-.24c3.14.69,4.48-4.13,1.33-4.82-36-7.92-68.81,14.39-92.22,39.46-7.07,7.58-13.7,15.56-20.31,23.55l4.18,1.1a83.39,83.39,0,0,0-18.54-27.79c-7.53-7.4-16.44-12.76-25.71-17.68-16.6-8.79-37.7-18.63-38.66-40.23-.55-12.18,5.27-23.69,11.82-33.58a169,169,0,0,1,10.83-14.42c3.75-4.56,7.76-9.19,12.79-12.38s10.41-4.15,15.73-1.06c5,2.93,9.37,6.2,15.17,7.63,11.74,2.9,24.06.26,35.71-1.74,54.33-9.34,109.38-18.13,164.55-11.25,51.14,6.38,99.91,24.93,143.05,53,42,27.32,78.93,61.55,118.92,91.63q7.23,5.45,14.62,10.69l.6-4.57a49.35,49.35,0,0,1-38.49-1.78c-1.56-.76-3.92.12-3.76,2.16l4.68,61.56c.69,9.08,2.64,19.53-1.42,28.09-3.22,6.79-9.46,11.53-15.35,15.88-6.33,4.67-12.53,9.31-17.62,15.36a85.42,85.42,0,0,0-12.45,20.08c-6.9,15.32-10.14,31.82-12.83,48.31-3.33,20.38-6.2,41.3-15.57,60l2.82-1.15c-18.41-7.36-38.38-15.44-49.9-32.53-5.15-7.64-8.12-16.53-7.44-25.8.67-9,4.54-17.52,8.51-25.54s8.39-16.12,11.12-24.79a57.51,57.51,0,0,0,1.68-27.39c-3.45-19.65-15.57-36.88-28.26-51.75-5.41-6.32-11.88-13.81-21.16-11.89-7.95,1.65-13.52,9.53-15.63,16.9-3,10.43.15,21.56-2.54,32a29.68,29.68,0,0,1-15.88,19,28.71,28.71,0,0,1-25.56-.83c-9-4.74-13-13.27-17-22.13a94.36,94.36,0,0,0-33.93-40.46,95.53,95.53,0,0,0-24.41-11.4c-4.84-1.52-9.62-3.1-13.16-6.93-3.33-3.62-5.5-8.32-7.55-12.74a123.93,123.93,0,0,1-11-60.76,121.55,121.55,0,0,1,2.13-15.33c.63-3.15-4.19-4.49-4.82-1.33Z"/></svg>