<svg id="Layer_1" data-name="Layer 1" xmlns="http://www.w3.org/2000/svg" viewBox="0 0 1729 1729"><defs><style>.cls-1{fill:#946240;}.cls-2{fill:#0f0902;}.cls-3{fill:#160d03;}.cls-4{fill:#a30b07;}</style></defs><title>Love Poem</title><path class="cls-1" d="M766,577.84a521.43,521.43,0,0,0-73.77,61.24c-14.36,14.36-28.34,30.65-31,49.74-1.27,9.22.21,18.72-2.67,27.68-4,12.62-16,22.06-21.48,34.26-12.63,28.28,13.07,57.86,13,88.11,0,9.09-2.38,18.41.09,27.17,5.11,18.1,27.51,25.88,46.4,33s39.69,21.07,36.05,39.67c-1.73,8.88-8.86,16.13-12.61,24.52-5.7,12.76-3.2,27-.43,40.36a1517.73,1517.73,0,0,0,42.48,160.07c15.25-35,48.16-61,71.28-92.33,26.89-36.43,40.13-79.59,48.61-122.47a647,647,0,0,0,1.17-245.81c-5.88-31-14.29-62.12-31.83-89-9.2-14.08-21.16-27.06-36.87-35.05s-35.58-10.42-52.4-3.68"/><path class="cls-1" d="M764.77,575.68A534.06,534.06,0,0,0,706,622.47c-16.62,15.28-35.26,32-43.78,53.41A55.34,55.34,0,0,0,658.46,692c-.5,6.18,0,12.45-1,18.59-1.76,11.14-9.49,19.35-15.91,28.12-6.12,8.36-10.16,17.47-10.37,28-.21,10.2,2.72,20.21,5.94,29.78,3.4,10.12,7.35,20.13,9.38,30.64a63.78,63.78,0,0,1,1,16.14c-.39,6.29-1.35,12.58-.55,18.88,2.51,19.76,22.41,29,38.87,35.47,9.4,3.7,18.85,7,27.39,12.49,7.54,4.87,15.46,11.83,17.13,21.13,1.93,10.69-6.27,19.18-11,27.88-5.63,10.42-5.9,22-4.25,33.5,1.79,12.55,4.9,25,7.69,37.35q4.41,19.5,9.32,38.87,9.84,38.78,21.71,77,2.89,9.29,5.89,18.54c.6,1.83,3.64,2.7,4.57.6,17.34-39.32,53.85-65.58,77.25-100.86,25.35-38.21,37.53-83.32,45.4-128a652.34,652.34,0,0,0,8.92-150,646.42,646.42,0,0,0-8.44-73.69c-4-23-9-46-17.61-67.7-7.91-19.91-18.89-39.5-34.75-54.19-15.63-14.48-36.62-23.5-58.19-21.27A59,59,0,0,0,761.45,573c-3,1.15-1.68,6,1.32,4.82,20.58-8,43.72-2.69,61.18,10,17.27,12.56,29.26,31.59,37.89,50.79,9.17,20.38,14.58,42.27,18.77,64.15A633.24,633.24,0,0,1,890.22,776a645.94,645.94,0,0,1-6,146.43c-6.92,44.22-17.44,89.19-40.14,128.22-10.81,18.58-24.69,34.65-39.06,50.51-13.73,15.15-27.79,30.38-38.22,48.08a128.87,128.87,0,0,0-6.79,13.23l4.57.6a1525.32,1525.32,0,0,1-40.71-151.7c-2.52-11.8-5.77-24.09-4.38-36.25a39.89,39.89,0,0,1,5.85-16.28c2.73-4.5,5.83-8.79,7.93-13.64,8.31-19.17-7.89-34.58-23.52-42.92-16.44-8.77-37.09-11.7-50.44-25.63a26.94,26.94,0,0,1-6.62-11.24c-1.72-6.12-.92-12.59-.41-18.83a83.34,83.34,0,0,0-3.6-31.33c-5.61-18.82-17-39.58-10.69-59.62,3.17-10,10.82-17.6,16.66-26.05a45.2,45.2,0,0,0,6.86-13.94c1.54-5.76,1.55-11.76,1.7-17.68a60.85,60.85,0,0,1,10-32.44c6.21-9.68,14.21-18.08,22.35-26.15a517.07,517.07,0,0,1,56.72-48.63q7.43-5.48,15-10.7c2.63-1.82.13-6.15-2.53-4.32Z"/><path class="cls-2" d="M760.64,576c9.7-1.24,18.79,5.17,23,13.11s4.52,17.13,4.79,26q3,97.5,5.93,195c.43,14,.85,28-.94,42-1.68,13.16-5.32,26.13-6.46,39.32-3.28,38.07,14.32,74.25,21.91,111.55a219.1,219.1,0,0,1-11.36,124,181.14,181.14,0,0,0,35.92-22.94l-13.86,107.56c-6.23,48.37-11.67,100.54,14.78,142.06a924.86,924.86,0,0,0,18.88-110.27,392.44,392.44,0,0,1,51.47,41.95c5.08-26.81-4-54.3,1.27-81.08,2.85-14.39,9.74-27.9,14.81-41.82,16.48-45.26,73.62-58.63,80.21-105.71s-19.82-95.89,26-119.26c9.57-4.88.6-86.85,2.92-96.63,5.41-22.69,48.41-71.5,52.12-93,14.19-82.11-22-84.59-75.61-159.56-17.87-25-30.56-55.26-58.3-71.67s-69.68-17-91.78,6.39c-9,9.52-14.49,22.43-26.62,28.33-11.71,5.69-25.69,3-38.81,2.87s-29.1,5.18-31.19,17"/><path class="cls-3" d="M760.64,578.45c8.34-.79,16,3.71,20.24,10.85,4.44,7.48,4.73,16.62,5,25.07q.95,29.52,1.8,59,1.77,58.33,3.55,116.66c.58,19.26,2,38.77.12,58-1.85,18.6-7.67,36.47-7.3,55.31.71,35.39,16.22,68.14,22.82,102.48,7.76,40.34,3.16,82.34-11.8,120.5-.87,2.21,1.92,3.67,3.67,2.82a189.21,189.21,0,0,0,36.42-23.33l-4.26-1.77q-7.11,55.17-14.21,110.33c-3.91,30.64-7.33,62-2.22,92.73a129.3,129.3,0,0,0,17.69,47.82c1.09,1.74,4.06,1.58,4.57-.6a942.18,942.18,0,0,0,19-110.93l-3.76,2.16a395.93,395.93,0,0,1,51,41.56c1.25,1.21,3.83.82,4.18-1.1,4.74-26.43-3.68-53.17,1-79.54,2.27-12.88,7.84-24.84,12.63-36.91,3.68-9.28,7.26-18,13.32-26,20.29-26.89,56.18-42.38,67.06-76.09,5.89-18.25,3.42-38.65,1.88-57.4-1.38-16.87-3.62-36.08,4.78-51.59a41.14,41.14,0,0,1,8.13-10.43c3.78-3.52,8.11-5.62,12.36-8.42,2.84-1.88,3.73-5.37,4.33-8.54,2.38-12.61,1.54-26,1.13-38.74-.44-13.8-1.39-27.59-1.66-41.4-.07-3.61-.3-7.42.58-10.63,1.82-6.63,5.49-12.81,9-18.68,9.19-15.46,19.89-30,29.44-45.19a140.26,140.26,0,0,0,10.81-19.81c3.18-7.54,4-15.8,4.82-23.87,1.75-16.37,1.47-33.38-4.41-48.95-5.1-13.5-13.87-25-23.18-35.84-12.67-14.79-26-29-38-44.29-7.4-9.39-14.42-19.05-20.85-29.13-5.67-8.87-11.06-17.92-17.08-26.56-11.74-16.85-26.12-31.48-45.48-39.21-17.7-7.06-38.33-8.76-56.68-3.27a61.06,61.06,0,0,0-23.64,13c-7.67,7-12.45,16.38-19.64,23.77-17.48,18-43,4.58-64.12,12.27-7.52,2.73-14.52,7.79-16.26,16-.67,3.14,4.15,4.48,4.82,1.33,2-9.65,12.9-13.46,21.59-14.72,11.31-1.64,22.76,1.13,34.11-.11,10.52-1.15,19-5.94,25.84-13.94,6.5-7.6,11.42-16.49,19.28-22.87,15.25-12.37,36.75-15,55.59-11.71,20.7,3.62,38.08,14.48,51.55,30.46S993,574,1005.14,590.88c12.37,17.2,26.1,33.26,40.18,49.06,10,11.25,20.51,22.53,27.75,35.86,7.33,13.48,9.86,28.43,9.48,43.65a147.71,147.71,0,0,1-3.19,28.91c-1.42,6.28-4.7,12.12-7.88,17.65-8.75,15.22-19.19,29.41-28.67,44.17a179.24,179.24,0,0,0-11.66,20.24c-2,4.13-3.76,8.4-4.07,13-.77,11.27.52,22.85,1,34.1.62,14,1.33,28.07.64,42.07-.22,4.52-.28,9.64-2,13.92-.67,1.72-.75,1.59-2.23,2.42a63.51,63.51,0,0,0-11.85,8.26c-12.5,11.38-16,27.77-16,44.05,0,18.95,3.47,37.74,2.73,56.72-.34,9-1.51,17.89-5.09,26.18a74.81,74.81,0,0,1-13.69,20.44c-11.45,12.59-25.35,22.62-37.56,34.43a119,119,0,0,0-16.43,19.27c-5.49,8.27-8.57,17.42-12.28,26.55-4.81,11.86-9.87,23.68-11.68,36.44s-.83,25.43.08,38.12,1.7,25.63-.58,38.32l4.18-1.11a404.5,404.5,0,0,0-52-42.34c-1.72-1.18-3.57.45-3.76,2.16A933,933,0,0,1,831.91,1353l4.57-.6c-16.59-26.4-20.45-57.57-19.39-88.18,1.14-33.12,6.69-66.13,10.92-99l7.89-61.23c.31-2.4-2.82-3-4.27-1.77a183.39,183.39,0,0,1-35.42,22.55l3.68,2.82a223.3,223.3,0,0,0,14-109.05c-4.64-36.71-21.59-70.88-24.5-107.83a119.74,119.74,0,0,1,1.11-28.18c1.51-9.57,3.78-19,5.11-28.61,2.7-19.49,1.33-39.32.74-58.92q-1.86-61.24-3.73-122.5l-1-34.16c-.33-10.81-.23-21.72-1.16-32.5-.73-8.44-2.73-17-8.45-23.51a25.47,25.47,0,0,0-21.36-8.95c-3.18.3-3.21,5.3,0,5Z"/><path class="cls-4" d="M642,804.28c3.89-6.24,14.28-9,21.3-12.18,1.66-.76,3.7-1.41,5.26-.55,1.3.72,1.74,2.23,2.71,3.3,2.2,2.43,6.47,2.06,9.74.85s6.48-3.06,10-2.94c4.28.14,7.6,3.17,10.48,6l12.6,12.4a4.18,4.18,0,0,1,1.46,2.28,4,4,0,0,1-1.39,2.86c-3.8,4.25-8.46,7.8-13.08,11.32-6.42,4.88-13.75,10-22,9.59-4.46-.26-8.54-2.18-12.39-4.17-6.13-3.15-12.17-6.61-16.88-11.35s-8-10.93-7.81-17.41"/><path class="cls-4" d="M644.2,805.54c2.38-3.71,7.14-5.78,11.13-7.46,2.28-1,4.6-1.83,6.88-2.79a34.86,34.86,0,0,1,3.48-1.43c1.12-.33,1.69-.36,2.33.63a10.86,10.86,0,0,0,2.75,3.17,8.61,8.61,0,0,0,4,1.39,16,16,0,0,0,7.79-1.25c2.74-1.08,5.64-2.74,8.69-2.53,2.52.17,4.72,1.77,6.55,3.4,4.93,4.41,9.51,9.27,14.21,13.91.31.31.63.6.91.93,0,0,.21.36.19.13a13.43,13.43,0,0,1-.83,1.06c-1.16,1.29-2.4,2.5-3.68,3.67-2.32,2.12-4.79,4.07-7.28,6-4.62,3.53-9.41,7.37-15,9.27a18.18,18.18,0,0,1-8.3,1,28.21,28.21,0,0,1-8.48-2.94c-10.76-5.32-25.32-13.5-25-27.39.08-3.22-4.92-3.22-5,0-.33,14.23,12.3,23.67,23.59,29.7,6.12,3.27,12.55,6.48,19.69,5.57,6.72-.86,12.56-4.57,17.89-8.53,2.81-2.09,5.6-4.21,8.3-6.43a44.76,44.76,0,0,0,7.88-7.68,5.11,5.11,0,0,0,.87-4.87c-.65-1.78-2.32-3.07-3.64-4.37l-8.4-8.27c-4.75-4.68-9.76-10.07-17.08-9-3.28.5-6.12,2.26-9.26,3.19-1.88.56-4.88,1.14-6.33-.57-1.18-1.4-1.76-3-3.53-3.83a7.51,7.51,0,0,0-5.74,0c-2.84,1-5.63,2.34-8.44,3.48-5.7,2.31-12,4.91-15.46,10.3-1.74,2.72,2.59,5.23,4.32,2.53Z"/></svg>