<svg id="Layer_1" data-name="Layer 1" xmlns="http://www.w3.org/2000/svg" viewBox="0 0 1729 1729"><defs><style>.cls-1{fill:#efd0bb;}.cls-2{fill:#3f0404;}.cls-3{fill:#af0b0b;}</style></defs><title>Love Poem</title><path class="cls-1" d="M704,586.1s-32.11,46.39-38.36,58S649.6,686.91,649.6,688.7a135.9,135.9,0,0,0,1.73,16.7c1.23,7.36,2.86,15.55.82,20.05s-8.19,9.41-12.28,12.27-14.32,11-14.32,11l-12.69,13.92-21.69,18.82s-7.36,11.87-2,18.41,20.46,16.78,20.46,16.78-6.34,14.54-9.62,18.63,18.84,23.2,18.84,23.2l12.28,12.56-15.83,6-17.12,7.18s4.9.77,2.85,7.32-4.09,11.46-7,18.41-6.14,25.37,3.27,32.33,45,19.23,57.7,19.64,40.18,6.08,51.5,10.93,19.42,41.26,19.42,41.26l17.8,46.93s61.49-.81,116.51,18.61,129.46,16.18,129.46,16.18-55.83-67.15-60.68-92.23S722.57,566.63,704,586.1Z"/><path class="cls-2" d="M725.93,537.6l95.48-9.7s67.15-7.29,85.76-4,63.92,14.56,85.77,29.94,76,55,85.76,81.72,30.75,85.76,30.75,98.71,17.8,57.44,17.8,75.24-12.14,68-19.42,73.63-24.27,17-21,34.79,10.52,12.14,18.61,8.9a93.48,93.48,0,0,0,16.18-8.9s-6.47,20.23-24.27,22.66-28.32,7.28-28.32,7.28,9.71,17.8,22.66,11.33l12.94-6.48s5.67,12.14-11.33,19.42-21.84,14.57-42.07,16.18-76.05,5.67-86.57,5.67-52.59,9.71-59.07,11.32-38.83-21.84-38-38.83-20.23,12.13-29.94,21.84S793.9,985,785.81,976.14,818.17,930,818.17,930s-31.55,25.08-48.55,25.89S675,943.77,710.56,943.77s79.29-16.18,87.38-28.32,22.66-31.55,14.57-52.59S751,812.7,739.69,804.61s-46.12-51-49.36-64.73-6.47-93.86-4.85-107.61S683.86,540.84,725.93,537.6Z"/><path class="cls-3" d="M600,835.33l18.84,23.2,12.28,12.56s8.74,3.55-1.09,5.46-28.66,8.73-28.66,8.73S584.69,882,594,870.54s22.93-1.91,22.93-1.91,16.92,4.64-4.1-10.37S593.15,848.7,600,835.33Z"/></svg>