<svg id="Layer_1" data-name="Layer 1" xmlns="http://www.w3.org/2000/svg" viewBox="0 0 1729 1729"><defs><style>.cls-1{fill:#c79371;}.cls-2{fill:#2c2b33;}.cls-3{fill:#a37358;}</style></defs><title>index</title><path class="cls-1" d="M722.42,1023.8l54.84,7.48s8.1-.62,10.59,13.09,6.86,34.89,6.86,34.89,56.08-27.42,84.12-43.62,110.3-39.26,119-39.26,23.06-1.24,23.06-1.24-2.49-15.58,4.36-26.18,11.84-167,11.84-167l-69.17-58.58-168.25-129s-49.85,45.49-59.2,54.84-23,28.66-22.43,39.26-1.87,25.55-5,31.16-7.47,22.43-7.47,22.43,9.34,24.3,1.87,36.77-38.64,44.24-38.64,44.24-16.2,16.82-5,23.06,20.56,10.59,20.56,10.59l-6.23,26.17,31.16,24.3s-7.1,8.13-17.07,8.76-16.58,11.18-16.58,11.18,16.2,6.24,16.2,13.71,0,36.15,3.11,41.13S710.58,1023.18,722.42,1023.8Z"/><path class="cls-2" d="M890.66,796l26.81-4.65s32.4-6.23,36.76,6.85,9.35,31.16,8.73,38.64,5.61,33.65,5.61,33.65-.63,44.86,1.24,54.83,33,37.39,39.26,37.39,42.37-13.71,51.1-26.17,20.56-12.46,20.56-12.46,4.36,0,6.86-13.71,17.44-23.68,21.81-28,27.42-24.93,28-34.9,19.94-34.27,15.58-47.36-8.1-27.42-4.36-39.26,3.11-23.05,1.24-38.63-16.2-31.78-20.56-38-31.78-28.67-33-35.52.62-37.39-16.82-42.38-36.77-21.19-41.76-21.81-6.85-16.82-14.33-17.45-21.18-6.23-21.18-8.72-1.25-6.86-8.73-2.49-17.45,5-19.94,4.36-10-2.49-13.09-8.1-13.08-5.61-17.44-2.49-14.34-.63-14.34-.63-7.47-8.72-17.44-1.24-14.34,13.71-27.42,11.84-28.67-.63-31.16-.63-18.07.63-19.94,1.25,15.58-6.23-1.87.62S800.31,582,791.59,582,771,585.73,766,590.09s-14.95,11.22-15.58,18.69-6.23,21.19-1.24,28.05,6.85,18.07,6.85,18.07,61.07-19.94,68.55-15-19.32,33-19.94,41.13-25.55,32.4-5,43.62,53,61.69,53,74.16S840.2,854.31,839,868s-7.48,54.22.62,38.64,19.94-89.73,25.55-96.59S890.66,796,890.66,796Z"/><path class="cls-3" d="M678.18,902.91l31.16,24.3s11,.41-3.22,8.31-30.43,11.63-30.43,11.63-.4-13.86,6.3-16.54,10.28-4,10.28-4S665.43,922.58,678.18,902.91Z"/></svg>