<svg id="Layer_1" data-name="Layer 1" xmlns="http://www.w3.org/2000/svg" viewBox="0 0 1729 1729"><defs><style>.cls-1{fill:#946240;}.cls-2{fill:#494440;}.cls-3{fill:#7f0e1c;}</style></defs><title>index</title><path class="cls-1" d="M673.4,752.36s21.42-73.65,52.22-103.11S838.11,656,838.11,656l109.8,112.48L991.5,938.07s-11.45,71.39-7.43,91.48,28.12,83,28.12,83-95.08-36.15-131.23-36.15-77.67,1.34-77.67,1.34l-20-46.22s-1.31-17.62-27.42-17.62-69.84,3.26-75.72,1.3-26.76-3.26-24.8-24.15,6.74-29.77-2.45-35.9-7.66-11.95-5.52-13.79,11-18.08,11-18.08-10.41-16.55-8.58-19.61.92-10.42-2.45-12-30-18.39-30-18.39-8.89-7.05,4.6-19.31,43.82-49,43.82-49S673.08,769,673.4,752.36Z"/><path class="cls-2" d="M736,656.61s29.15-8.73,38,12.06,23.15,37.09,6.76,59.14-17.64,25.2,4.42,31.51,39.06,1.89,37.17,20.16S802.79,799,805.94,802.79s5.67,24.57,30.87,12,64.86-26.34,80.61-14.37,33.83,17.89,38.87,51.92,1.54,35.13.75,50.34c-1.13,22-12.57,56.11,16.66,56.77,47.48,1.06,92.08-88.74,100.65-113.79,5.14-15,10.55-42.61,7.36-69.39-2.8-23.58-19.36-45.7-24.38-56.62-10.71-23.31-25.2-37.8-17-41s25.2-6.93,26.46-21.43-2.52-25.2,12-32.76,29-27.72,24.57-37.8-4.41-9.45-10.08-43.48-69.31-4.41-69.31-4.41-8.19-10.08-17-6.3-14.49,8.19-20.16,18.27-8.82,17-15.13,22.69S959,589.2,958.41,596.76s-.63,23.31-.63,23.31S925,597.39,904.23,594.24s-50.41-3.78-85.69,3.78-87.39,46.49-92.92,51.23C706.86,665.32,715.21,663.54,736,656.61Z"/><path class="cls-2" d="M722.36,652.23a168.66,168.66,0,0,0-24.21,29.53c-14.19,22-27.51,49.57-26.53,52,1.78,4.31,24.26-4,34.41-3.46s13.54-15.32,13.54-15.32l5.64,10.87,79.53-4.44-6.2-84.49Z"/><path class="cls-3" d="M649.81,903.69s-8.78,11.25-4.9,14.23,13.42,9,13.42,9S647.89,936.11,645.8,937s-7.75,16.7,6.26,8.35,26.84-15.21,26.84-15.21S647,914.8,649.81,903.69Z"/></svg>